<svg data-name="Layer 1" width="400px" height="400px" viewBox="0 0 400 400" xmlns="http://www.w3.org/2000/svg" xmlns:bx="https://boxy-svg.com">
    <title>Burney favicon</title>
    <path d="M 359.036 48.107 L 341.934 321.827 C 340.584 343.034 323.003 359.552 301.753 359.581 L 95.654 359.581 C 74.404 359.552 56.823 343.034 55.473 321.827 L 38.371 48.107 C 38.088 42.345 42.692 37.525 48.461 37.545 L 349.171 37.545 C 354.933 37.588 359.483 42.446 359.149 48.197 L 359.036 48.107 Z" fill="#464a5f" style=""></path>
    <path d="M 194.274 357.127 C 198.528 358.826 205.884 362.04 205.884 355.997 C 205.884 353.457 203.803 353.257 201.832 352.599 C 194.425 349.913 188.096 344.882 183.813 338.268 C 176.071 326.841 174.282 315.429 174.282 301.756 C 174.282 271.485 215.981 266.009 215.981 235.722 C 215.981 224.128 208.677 220.733 208.677 217.465 C 208.677 215.384 209.335 215.384 211.416 215.384 C 218.956 215.384 229.435 227.944 232.631 234.079 C 234.413 237.261 235.202 240.904 234.894 244.54 C 234.894 251.15 234.238 257.941 234.238 264.622 C 234.238 290.091 264.324 283.299 264.324 271.029 C 264.324 265.37 260.929 260.076 260.929 254.599 C 260.929 253.941 260.929 253.467 261.603 253.467 C 264.799 253.467 270.457 260.77 272.064 262.997 C 277.541 271.395 280.08 282.623 280.08 292.61 C 280.08 323.171 252.256 338.834 252.256 345.444 C 252.256 346.374 254.994 352.745 263.666 347.268 C 291.69 333.03 313.762 302.359 313.762 262.559 C 313.762 230.866 305.546 208.137 283.476 184.641 C 279.824 180.769 268.012 168.701 262.261 168.701 C 254.519 168.701 269.053 186.246 269.053 198.132 C 269.448 204.698 264.007 210.132 257.441 209.725 C 246.488 209.725 243.766 185.772 242.451 178.324 C 236.975 146.428 230.366 123.425 198.636 108.42 C 188.833 103.71 164.205 97.282 164.205 106.357 C 164.205 108.62 166.761 110.209 168.549 111.157 C 177.222 116.434 187.045 131.349 187.045 147.197 C 187.045 190.684 132.604 230.391 132.604 275.668 C 132.42 313.678 159.111 344.147 194.2 356.981 L 194.274 357.127 Z" fill="#f59e0b" style=""></path>
</svg>