<svg data-name="Layer 1" width="1000px" height="400px" viewBox="0 0 1000 400" xmlns="http://www.w3.org/2000/svg" xmlns:bx="https://boxy-svg.com">
    <defs>
      <style bx:fonts="Anonymous Pro">@import url(https://fonts.googleapis.com/css2?family=Anonymous+Pro%3Aital%2Cwght%400%2C400%3B0%2C700%3B1%2C400%3B1%2C700&amp;display=swap);</style>
    </defs>
    <title>Burnie Wallet</title>
    <path d="M 289.341 191.648 L 281.731 313.448 C 281.13 322.885 273.307 330.235 263.851 330.248 L 172.141 330.248 C 162.685 330.235 154.862 322.885 154.261 313.448 L 146.651 191.648 C 146.525 189.084 148.574 186.939 151.141 186.948 L 284.951 186.948 C 287.515 186.967 289.54 189.129 289.391 191.688 L 289.341 191.648 Z" fill="#464a5f"></path>
    <path d="M 207.141 184.238 C 209.471 185.168 213.501 186.928 213.501 183.618 C 213.501 182.228 212.361 182.118 211.281 181.758 C 207.224 180.286 203.758 177.53 201.411 173.908 C 197.171 167.648 196.191 161.398 196.191 153.908 C 196.191 137.328 219.031 134.328 219.031 117.738 C 219.031 111.388 215.031 109.528 215.031 107.738 C 215.031 106.598 215.391 106.598 216.531 106.598 C 220.661 106.598 226.401 113.478 228.151 116.838 C 229.128 118.581 229.559 120.577 229.391 122.568 C 229.391 126.188 229.031 129.908 229.031 133.568 C 229.031 147.518 245.511 143.798 245.511 137.078 C 245.511 133.978 243.651 131.078 243.651 128.078 C 243.651 127.718 243.651 127.458 244.021 127.458 C 245.771 127.458 248.871 131.458 249.751 132.678 C 252.751 137.278 254.141 143.428 254.141 148.898 C 254.141 165.638 238.901 174.218 238.901 177.838 C 238.901 178.348 240.401 181.838 245.151 178.838 C 260.501 171.038 272.591 154.238 272.591 132.438 C 272.591 115.078 268.091 102.628 256.001 89.758 C 254.001 87.638 247.531 81.028 244.381 81.028 C 240.141 81.028 248.101 90.638 248.101 97.148 C 248.318 100.745 245.338 103.721 241.741 103.498 C 235.741 103.498 234.251 90.378 233.531 86.298 C 230.531 68.828 226.911 56.228 209.531 48.008 C 204.161 45.428 190.671 41.908 190.671 46.878 C 190.671 48.118 192.071 48.988 193.051 49.508 C 197.801 52.398 203.181 60.568 203.181 69.248 C 203.181 93.068 173.361 114.818 173.361 139.618 C 173.261 160.438 187.881 177.128 207.101 184.158 L 207.141 184.238 Z" fill="#f59e0b"></path>
    <text style="fill: rgb(51, 51, 51); font-family: &quot;Anonymous Pro&quot;; font-size: 156.867px; line-height: 41.8311px; white-space: pre;" transform="matrix(0.956224, 0, 0, 0.956226, 365.264526, 303.535492)">Burney</text>
  </svg>